# xmcd
#
# Track frame offsets: 
#        150
#        16787
#        34506
#        51217
#        67105
#        84680
#        119834
#        143440
#        172098
#        185837
#        215578
#        233800
#        267486
#
# Disc length: 4572 seconds
#
# Revision: 2
# Processed by: cddbd v1.5.2PL0 Copyright (c) Steve Scherf et al.
# Submitted via: ExactAudioCopy v1.0b3
#
DISCID=c211da0d
DTITLE=Różni wykonawcy - Hey Jimi - Polskie gitary grają Hendrixa
DYEAR=2008
DGENRE=Rock
TTITLE0=Zbigniew Hołdys - Fire
TTITLE1=Leszek Cichoński - Vodoo Child (Slight Return)
TTITLE2=Wojciech Waglewski - The Wind Cries Mary
TTITLE3=Jacek Królik i Ryszard Sygitowicz - Crosstown Traffic
TTITLE4=Jan Borysewicz - Power Of Soul
TTITLE5=Cichoński, Riedel, Styczyński - Little Wing
TTITLE6=Ryszard Sygitowicz i Jacek Królik - Angel
TTITLE7=Cichoński, Riedel, Styczyñski - Red House
TTITLE8=Vintage - Wild Thing
TTITLE9=Marek Raduli i Krzysztof Scierański - Third Stone From The Sun
TTITLE10=Wojtek Klich - Manic Depression
TTITLE11=Leszek Cichoński i Marek Raduli - Thanks Jimi
TTITLE12=data
EXTD=
EXTT0=
EXTT1=
EXTT2=
EXTT3=
EXTT4=
EXTT5=
EXTT6=
EXTT7=
EXTT8=
EXTT9=
EXTT10=
EXTT11=
EXTT12=
PLAYORDER=
